<svg width="91" height="33" viewBox="0 0 91 33" fill="none" xmlns="http://www.w3.org/2000/svg"><path d="M12.73 28.38c4.244 0 7.526-3.333 7.526-8.264V.924h4.593v31.098H20.3v-2.888c-2.056 2.177-4.9 3.42-8.094 3.42C5.642 32.555.61 27.714.61 20.386V.93h4.593v19.187c0 5.02 3.238 8.263 7.526 8.263M28.263.925h4.42v11.328a11.029 11.029 0 0 1 3.622-2.503 10.89 10.89 0 0 1 4.296-.874c6.564 0 11.726 5.287 11.726 11.862 0 6.53-5.162 11.817-11.726 11.817a10.986 10.986 0 0 1-4.318-.872 11.126 11.126 0 0 1-3.648-2.504v2.842h-4.378L28.263.925zm12.033 27.677c4.2 0 7.657-3.51 7.657-7.864 0-4.398-3.457-7.863-7.657-7.863-4.245 0-7.701 3.465-7.701 7.863 0 4.353 3.412 7.864 7.7 7.864zM65.542 8.92c6.431 0 11.158 5.02 11.158 11.774v1.466H58.544c.613 3.687 3.631 6.442 7.392 6.442 2.584 0 4.77-1.067 6.432-3.333l3.195 2.4c-2.232 3.02-5.557 4.841-9.627 4.841-6.694 0-11.857-5.064-11.857-11.816 0-6.398 4.944-11.773 11.464-11.773zm-6.913 9.686h13.608c-.744-3.466-3.5-5.776-6.782-5.776-3.281 0-6.038 2.31-6.826 5.776zM88.557 13.364c-2.888 0-4.988 2.265-4.988 5.775v12.883h-4.42V9.365h4.378v2.801c1.094-1.821 2.888-2.976 5.338-2.976h1.531v4.176l-1.84-.002z" fill="#000"/></svg>